<svg width="148" height="43" viewBox="0 0 148 43" fill="none" xmlns="http://www.w3.org/2000/svg">
    <path
            d="M133.628 28.194C130.293 28.1392 127.334 27.0614 124.77 24.9515C122.316 22.9329 120.736 20.3663 120.01 17.279C119.642 15.7262 119.559 14.1552 119.734 12.5659C120.028 9.91705 120.993 7.52396 122.656 5.43229C124.853 2.66471 127.701 0.920135 131.193 0.262492C134.309 -0.322079 137.313 0.0615458 140.144 1.49557C144.15 3.53244 146.668 6.76585 147.688 11.1319C147.918 12.1092 148.001 13.0957 148.001 14.0913C148.001 21.1701 148.001 28.258 148.001 35.3368C148.001 38.5793 145.575 41.5204 142.377 42.1324C140.006 42.5891 137.883 42.0319 136.1 40.397C134.437 38.8716 133.702 36.9443 133.858 34.7065C134.088 31.4731 136.505 28.8608 139.73 28.2945C139.85 28.2762 139.978 28.2671 140.107 28.2488C140.217 28.2397 140.318 28.2306 140.429 28.2214C140.429 28.2123 140.429 28.2032 140.429 28.1849H140.217C138.104 28.1849 135.99 28.1849 133.877 28.1849C133.803 28.1849 133.73 28.1849 133.656 28.1849L133.628 28.194ZM144.665 22.9238C144.665 21.7455 143.709 20.7956 142.524 20.7956C141.338 20.7956 140.383 21.7455 140.383 22.9238C140.383 24.102 141.338 25.052 142.524 25.052C143.709 25.052 144.665 24.102 144.665 22.9238Z"
            fill="white"/>
    <path
            d="M98.9318 22.5424C98.9639 23.0122 99.1133 23.4286 99.3803 23.7916C99.6472 24.1546 100.016 24.4429 100.485 24.6564C100.966 24.8593 101.532 24.9607 102.183 24.9607C102.802 24.9607 103.357 24.8967 103.849 24.7685C104.35 24.6404 104.783 24.4803 105.146 24.2881C105.519 24.0959 105.808 23.8984 106.011 23.6955L107.9 26.7064C107.633 26.9947 107.254 27.2776 106.763 27.5552C106.283 27.8221 105.648 28.041 104.857 28.2118C104.067 28.3826 103.069 28.4681 101.863 28.4681C100.411 28.4681 99.1187 28.1958 97.9869 27.6513C96.8552 27.1068 95.9637 26.306 95.3124 25.249C94.6611 24.192 94.3354 22.9001 94.3354 21.3733C94.3354 20.0921 94.613 18.939 95.1682 17.914C95.7341 16.8783 96.5509 16.0616 97.6186 15.4637C98.6863 14.8551 99.9728 14.5508 101.478 14.5508C102.909 14.5508 104.147 14.8124 105.194 15.3355C106.251 15.8587 107.062 16.6381 107.628 17.6738C108.205 18.6987 108.493 19.98 108.493 21.5174C108.493 21.6028 108.488 21.7737 108.477 22.0299C108.477 22.2862 108.466 22.457 108.445 22.5424H98.9318ZM103.913 19.996C103.902 19.6543 103.811 19.318 103.64 18.987C103.469 18.6454 103.213 18.3678 102.872 18.1542C102.53 17.93 102.092 17.8179 101.558 17.8179C101.024 17.8179 100.571 17.9247 100.197 18.1382C99.834 18.3411 99.5564 18.608 99.3642 18.939C99.1721 19.27 99.0653 19.6223 99.0439 19.996H103.913Z"
            fill="white"/>
    <path
            d="M86.1084 14.5508C87.0266 14.5508 87.9235 14.7376 88.799 15.1113C89.6745 15.485 90.3952 16.0776 90.961 16.889C91.5269 17.6898 91.8098 18.7468 91.8098 20.06V28.0837H86.9252V20.8608C86.9252 19.9212 86.701 19.2166 86.2525 18.7468C85.8041 18.2663 85.2169 18.0261 84.4908 18.0261C84.0104 18.0261 83.5566 18.1542 83.1295 18.4105C82.7132 18.656 82.3715 19.0084 82.1046 19.4675C81.8483 19.9159 81.7202 20.4337 81.7202 21.021V28.0837H76.8516V14.9351H81.7202V16.873C81.8483 16.5207 82.1153 16.1683 82.521 15.816C82.9374 15.453 83.4552 15.154 84.0745 14.9191C84.7044 14.6736 85.3824 14.5508 86.1084 14.5508Z"
            fill="white"/>
    <path
            d="M68.421 28.0831V14.9346H73.2897V28.0831H68.421ZM70.9194 12.228C70.1507 12.228 69.4994 11.9611 68.9656 11.4272C68.4317 10.8827 68.1648 10.2368 68.1648 9.4894C68.1648 8.74201 68.4317 8.09607 68.9656 7.55155C69.5101 6.99635 70.1614 6.71875 70.9194 6.71875C71.4212 6.71875 71.8803 6.84687 72.2967 7.10312C72.7131 7.34869 73.0495 7.67967 73.3057 8.09607C73.5619 8.51246 73.6901 8.97691 73.6901 9.4894C73.6901 10.2368 73.4178 10.8827 72.8733 11.4272C72.3288 11.9611 71.6775 12.228 70.9194 12.228Z"
            fill="white"/>
    <path
            d="M59.313 14.5508C60.2312 14.5508 61.128 14.7376 62.0036 15.1113C62.8791 15.485 63.5997 16.0776 64.1656 16.889C64.7315 17.6898 65.0144 18.7468 65.0144 20.06V28.0837H60.1298V20.8608C60.1298 19.9212 59.9056 19.2166 59.4571 18.7468C59.0087 18.2663 58.4215 18.0261 57.6954 18.0261C57.215 18.0261 56.7612 18.1542 56.3341 18.4105C55.9177 18.656 55.5761 19.0084 55.3092 19.4675C55.0529 19.9159 54.9248 20.4337 54.9248 21.021V28.0837H50.0562V14.9351H54.9248V16.873C55.0529 16.5207 55.3198 16.1683 55.7256 15.816C56.142 15.453 56.6598 15.154 57.279 14.9191C57.909 14.6736 58.587 14.5508 59.313 14.5508Z"
            fill="white"/>
    <path
            d="M39.9944 23.8716L43.5498 14.9351H48.3223L39.2897 34.746H34.421L37.4639 28.0836L31.9707 14.9351H36.8233L39.9944 23.8716Z"
            fill="white"/>
    <path
            d="M25.0696 28.0837V25.9537C24.9735 26.1672 24.728 26.4768 24.3329 26.8825C23.9486 27.2883 23.4361 27.6566 22.7955 27.9876C22.1549 28.3079 21.4075 28.4681 20.5533 28.4681C19.2721 28.4681 18.151 28.1584 17.1901 27.5392C16.2292 26.9092 15.4818 26.0711 14.948 25.0248C14.4141 23.9678 14.1472 22.7987 14.1472 21.5174C14.1472 20.2362 14.4141 19.0724 14.948 18.0261C15.4818 16.9691 16.2292 16.1256 17.1901 15.4957C18.151 14.8657 19.2721 14.5508 20.5533 14.5508C21.3754 14.5508 22.0961 14.6842 22.7154 14.9512C23.3347 15.2074 23.8365 15.517 24.2208 15.88C24.6052 16.2324 24.8721 16.558 25.0216 16.857V14.9351H29.8582V28.0837H25.0696ZM18.9198 21.5174C18.9198 22.1153 19.0586 22.6545 19.3362 23.135C19.6138 23.6048 19.9821 23.9731 20.4412 24.24C20.911 24.5069 21.4288 24.6404 21.9947 24.6404C22.5819 24.6404 23.0998 24.5069 23.5482 24.24C23.9966 23.9731 24.349 23.6048 24.6052 23.135C24.8721 22.6545 25.0056 22.1153 25.0056 21.5174C25.0056 20.9195 24.8721 20.3857 24.6052 19.9159C24.349 19.4354 23.9966 19.0618 23.5482 18.7948C23.0998 18.5172 22.5819 18.3784 21.9947 18.3784C21.4288 18.3784 20.911 18.5172 20.4412 18.7948C19.9821 19.0618 19.6138 19.4354 19.3362 19.9159C19.0586 20.3857 18.9198 20.9195 18.9198 21.5174Z"
            fill="white"/>
    <path
            d="M6.58228 14.5508C7.44711 14.5508 8.2372 14.6255 8.95254 14.775C9.66789 14.9138 10.2658 15.0739 10.7463 15.2555C11.2374 15.437 11.5524 15.5864 11.6912 15.7039L10.1056 18.5706C9.90278 18.4211 9.52376 18.229 8.96856 17.9941C8.42404 17.7592 7.81546 17.6417 7.14282 17.6417C6.63033 17.6417 6.19791 17.7218 5.84558 17.882C5.49324 18.0314 5.31707 18.2717 5.31707 18.6026C5.31707 18.9336 5.50926 19.2006 5.89362 19.4034C6.28867 19.5956 6.85454 19.7664 7.59125 19.9159C8.23186 20.044 8.88314 20.2469 9.54511 20.5245C10.2071 20.8021 10.7569 21.2131 11.1947 21.7577C11.6431 22.2915 11.8673 23.0069 11.8673 23.9037C11.8673 24.8219 11.6698 25.58 11.2748 26.1779C10.8797 26.7758 10.3566 27.2402 9.70526 27.5712C9.05397 27.9022 8.3493 28.1317 7.59125 28.2599C6.83319 28.3987 6.09649 28.4681 5.38113 28.4681C4.37751 28.4681 3.50201 28.3773 2.75463 28.1958C2.01793 28.0143 1.42002 27.8061 0.960917 27.5712C0.501812 27.3363 0.181507 27.1495 0 27.0107L1.5695 23.8076C1.8471 24.0425 2.30086 24.3094 2.9308 24.6084C3.56073 24.8967 4.22803 25.0408 4.93271 25.0408C5.61603 25.0408 6.14453 24.9394 6.51822 24.7365C6.89191 24.5336 7.07876 24.2667 7.07876 23.9357C7.07876 23.6688 6.988 23.4553 6.8065 23.2951C6.62499 23.135 6.36874 22.9962 6.03776 22.8787C5.70678 22.7613 5.3064 22.6545 4.83662 22.5584C4.40954 22.473 3.95578 22.3395 3.47532 22.158C2.99486 21.9765 2.54109 21.731 2.11402 21.4213C1.68694 21.101 1.33995 20.7006 1.07302 20.2202C0.806103 19.7397 0.672642 19.1578 0.672642 18.4745C0.672642 17.599 0.955579 16.873 1.52145 16.2964C2.08733 15.7199 2.81869 15.2875 3.71555 14.9992C4.6124 14.7003 5.56798 14.5508 6.58228 14.5508Z"
            fill="white"/>
</svg>